# xmcd
#
# Track frame offsets:
#   183
#   11420
#   20973
#   31790
#   42058
#   60738
#   69990
#   81428
#   91260
#   101150
#   111588
#   123953
#
# Disc length: 1946 seconds
#
# Revision: 1
# Processed by: cddbd v1.5.2PL0 Copyright (c) Steve Scherf et al.
# Submitted via: Media_Universe 3.0
#
DISCID=9a07980c
DTITLE=Little Richard - Little Richard - Legends in Music
DYEAR=1989
DGENRE=R and B
TTITLE0=Little Richard - Whole lotta Shakin' goin' on
TTITLE1=Little Richard - Good Golly Miss Molly
TTITLE2=Little Richard - Tutti Fruitti
TTITLE3=Little Richard - Lucille
TTITLE4=Little Richard - I don't know what you Got
TTITLE5=Little Richard - Long Tall Sally
TTITLE6=Little Richard - Baby Face
TTITLE7=Little Richard - She's got it
TTITLE8=Little Richard - Short Fat Fannie
TTITLE9=Little Richard - Hound Dog
TTITLE10=Little Richard - Dock of the Bay
TTITLE11=Little Richard - Chains of Love
EXTD=
EXTT0=
EXTT1=
EXTT2=
EXTT3=
EXTT4=
EXTT5=
EXTT6=
EXTT7=
EXTT8=
EXTT9=
EXTT10=
EXTT11=
PLAYORDER=
